<svg xmlns="http://www.w3.org/2000/svg" version="1.1" xmlns:xlink="http://www.w3.org/1999/xlink" width="1000" height="1000"><g clip-path="url(#SvgjsClipPath1013)"><rect width="1000" height="1000" fill="#ffffff"></rect><g transform="matrix(2.3333333333333335,0,0,2.3333333333333335,150,150)"><svg xmlns="http://www.w3.org/2000/svg" version="1.1" xmlns:xlink="http://www.w3.org/1999/xlink" width="300" height="300"><svg xmlns="http://www.w3.org/2000/svg" width="300" height="300" viewBox="0 0 24 24" classname="shrink-0"><path fill="currentColor" fillrule="evenodd" d="M4 3a1 1 0 0 1 1-1h14a1 1 0 0 1 1 1v18a1 1 0 0 1-1.65.76l-1.033-.885a1 1 0 0 0-1.301 0l-1.032.884a1 1 0 0 1-1.302 0l-1.031-.884a1 1 0 0 0-1.302 0l-1.031.884a1 1 0 0 1-1.302 0l-1.032-.884a1 1 0 0 0-1.301 0l-1.032.884A1 1 0 0 1 4 21V3Zm5 3a1 1 0 0 0 0 2h6a1 1 0 1 0 0-2H9Zm0 4a1 1 0 1 0 0 2h6a1 1 0 1 0 0-2H9Zm1 5a1 1 0 0 1 1-1h4a1 1 0 1 1 0 2h-4a1 1 0 0 1-1-1Z" cliprule="evenodd"></path></svg></svg></g></g><defs><clipPath id="SvgjsClipPath1013"><rect width="1000" height="1000" x="0" y="0" rx="350" ry="350"></rect></clipPath></defs></svg>